<?xml version="1.0" encoding="UTF-8"?>
<svg version="1.1" xmlns="http://www.w3.org/2000/svg" width="640" height="120">
<path d="M0 0 C50.49 0 100.98 0 153 0 C153.99 2.97 154.98 5.94 156 9 C156.66 6.03 157.32 3.06 158 0 C198.26 0 238.52 0 280 0 C282.76779271 11.07117083 282.13334299 23.01873443 282.0625 34.375 C282.05746589 35.8046859 282.05290643 37.23437355 282.04882812 38.6640625 C282.03885881 42.10945605 282.01926002 45.5545969 282 49 C287.94 49.33 293.88 49.66 300 50 C300.33 33.5 300.66 17 301 0 C321.46 0 341.92 0 363 0 C363.57744303 5.77443032 364.12415163 11.26049796 364.28125 17.01171875 C364.31806885 18.25630859 364.3548877 19.50089844 364.39282227 20.78320312 C364.42819092 22.07162109 364.46355957 23.36003906 364.5 24.6875 C364.83589016 36.35344307 364.83589016 36.35344307 365.5625 48 C365.98815108 53.93818147 366.17565679 59.86094186 366.25 65.8125 C366.28202515 67.07416992 366.28202515 67.07416992 366.31469727 68.36132812 C366.36285741 77.67112128 364.59708739 85.41747564 363 95 C295.35 95 227.7 95 158 95 C157.01 92.69 156.02 90.38 155 88 C154.34 90.31 153.68 92.62 153 95 C141.160842 95.30175965 129.32260418 95.53246551 117.48037815 95.67355824 C111.98073187 95.74129357 106.4837235 95.83308262 100.9855957 95.98071289 C95.67501565 96.12240807 90.36696473 96.19977935 85.05463982 96.23340416 C83.0325532 96.25734991 81.01059898 96.3041186 78.98959541 96.37449074 C63.49726275 96.89227835 63.49726275 96.89227835 59.23420334 93.66198349 C55.99464052 90.19094214 53.90006405 86.32282186 52 82 C50.515 88.435 50.515 88.435 49 95 C38.11 95 27.22 95 16 95 C15.34 93.68 14.68 92.36 14 91 C13.34 91 12.68 91 12 91 C10.0616214 88.76658661 8.23813481 86.52763358 6.4375 84.1875 C5.93025391 83.54490234 5.42300781 82.90230469 4.90039062 82.24023438 C2.72947117 79.45070406 1.13007768 77.39023304 0 74 C-0.66 74 -1.32 74 -2 74 C-2.15648512 69.08652347 -1.68156432 64.93219056 -0.43359375 60.18359375 C-0.11326172 58.92482422 0.20707031 57.66605469 0.53710938 56.36914062 C1.04917579 54.39782014 1.56511234 52.42759899 2.0847168 50.45825195 C2.58864441 48.53596762 3.07769604 46.60980309 3.56640625 44.68359375 C3.86490479 43.54462646 4.16340332 42.40565918 4.47094727 41.23217773 C5.24531685 36.50126911 4.88644592 33.28375361 2.15234375 29.32421875 C1.42144531 28.45410156 0.69054687 27.58398438 -0.0625 26.6875 C-4.59389101 20.65106889 -4.59389101 20.65106889 -4.75 16.5625 C-4 12 -4 12 0 0 Z " fill="#1D1148" transform="translate(4,12)"/>
<path d="M0 0 C80.19 0 160.38 0 243 0 C246.1604817 11.3777341 249.24579126 22.72723691 252.0625 34.1875 C252.7183003 36.84809188 253.37589026 39.50823353 254.03515625 42.16796875 C254.27468773 43.13549828 254.27468773 43.13549828 254.51905823 44.12257385 C255.99305776 50.04170828 257.57195662 55.93068687 259.171875 61.81689453 C261.38859645 70.33741761 261.38859645 70.33741761 260 74 C257.45261634 77.29942696 254.72219139 80.24188667 251.7734375 83.1796875 C249.52575049 85.46536358 247.70762755 87.6001727 245.9375 90.25 C244.9784375 91.61125 244.9784375 91.61125 244 93 C243.34 93 242.68 93 242 93 C242 93.66 242 94.32 242 95 C162.14 95 82.28 95 0 95 C-1.25793769 92.48412463 -1.24056807 90.56119562 -1.38891602 87.74682617 C-1.44890274 86.64775436 -1.50888947 85.54868256 -1.57069397 84.41630554 C-1.63115402 83.2206044 -1.69161407 82.02490326 -1.75390625 80.79296875 C-1.81907944 79.56145584 -1.88425262 78.32994293 -1.95140076 77.06111145 C-2.12404513 73.77336377 -2.29244587 70.48543056 -2.45935059 67.1973877 C-2.62856551 63.90019978 -2.80633085 60.60346737 -2.98242188 57.30664062 C-3.11508241 54.76044262 -3.24725863 52.21421933 -3.37890625 49.66796875 C-3.44139053 48.49453415 -3.50387482 47.32109955 -3.56825256 46.11210632 C-4.13862866 34.73414668 -4.43993412 23.63960469 -2.5625 12.375 C-2.42779297 11.50488281 -2.29308594 10.63476562 -2.15429688 9.73828125 C-1.61987124 6.36488239 -1.08256289 3.24768866 0 0 Z " fill="#1D1249" transform="translate(380,12)"/>
<path d="M0 0 C7.59 0 15.18 0 23 0 C22 9 22 9 21 13 C23.64 13 26.28 13 29 13 C28.67 16.96 28.34 20.92 28 25 C30.31 25 32.62 25 35 25 C35.04898438 24.20078125 35.09796875 23.4015625 35.1484375 22.578125 C35.6685276 14.93818083 36.63816763 7.53547243 38 0 C45.26 0 52.52 0 60 0 C60 11.38461538 60 11.38461538 59.5625 16.9375 C59.44068359 18.55978516 59.44068359 18.55978516 59.31640625 20.21484375 C59 23 59 23 58 26 C57.73609656 28.26040605 57.5146099 30.52585696 57.31640625 32.79296875 C57.19219895 34.15951809 57.06784523 35.52605413 56.94335938 36.89257812 C56.75248512 39.03374248 56.56358087 41.17504788 56.37768555 43.31665039 C56.19608908 45.39262267 56.00664076 47.46777261 55.81640625 49.54296875 C55.70756104 50.78071045 55.59871582 52.01845215 55.48657227 53.29370117 C55 57 55 57 53 65 C45.74 65 38.48 65 31 65 C31 53.75 31 53.75 31.5 49.375 C31.63921875 48.11816406 31.63921875 48.11816406 31.78125 46.8359375 C31.8534375 46.23007812 31.925625 45.62421875 32 45 C29.69 45 27.38 45 25 45 C25.33 40.71 25.66 36.42 26 32 C23.36 32 20.72 32 18 32 C17.95101562 33.21816406 17.90203125 34.43632813 17.8515625 35.69140625 C17.77647727 37.31512437 17.70093198 38.93882126 17.625 40.5625 C17.57859375 41.76229492 17.57859375 41.76229492 17.53125 42.98632812 C17.28767868 47.95924263 16.43826463 52.20761443 15 57 C14.67 59.64 14.34 62.28 14 65 C6.41 65 -1.18 65 -9 65 C-8.38598108 54.60943542 -7.18854668 44.46828824 -5.625 34.1875 C-5.39994766 32.68248415 -5.17509538 31.17743836 -4.95043945 29.67236328 C-3.46034544 19.75053257 -1.83736704 9.86375988 0 0 Z " fill="#34A0CE" transform="translate(129,17)"/>
<path d="M0 0 C17.49 0 34.98 0 53 0 C51.18727371 12.68908401 49.37020798 25.35762361 47.32006836 38.0078125 C46.92961583 40.42378426 46.5458481 42.8407663 46.16210938 45.2578125 C45.90925594 46.82558568 45.65601595 48.39329659 45.40234375 49.9609375 C45.23508034 51.02192154 45.23508034 51.02192154 45.06443787 52.1043396 C44.33128799 56.57446851 43.25882789 60.59410239 42 65 C34.41 65 26.82 65 19 65 C20.1302682 52.56704981 20.1302682 52.56704981 21.5 46.4375 C21.7578125 45.26058594 22.015625 44.08367188 22.28125 42.87109375 C23 40 23 40 24 38 C21.36 38.33 18.72 38.66 16 39 C13.79004249 48.52103453 13.79004249 48.52103453 12.4375 58.1875 C12 62 12 62 10 65 C7.75341797 65.34057617 7.75341797 65.34057617 4.9921875 65.29296875 C4.00605469 65.28330078 3.01992187 65.27363281 2.00390625 65.26367188 C0.97136719 65.23853516 -0.06117187 65.21339844 -1.125 65.1875 C-2.68541016 65.16719727 -2.68541016 65.16719727 -4.27734375 65.14648438 C-6.85207627 65.11105228 -9.4257833 65.06165221 -12 65 C-12.25961535 58.47907339 -11.29711877 52.7260289 -9.875 46.375 C-9.41781882 44.26463695 -8.96216686 42.15394221 -8.5078125 40.04296875 C-8.14284668 38.3556665 -8.14284668 38.3556665 -7.77050781 36.63427734 C-6.93981423 32.71611996 -6.14650651 28.79191262 -5.3671875 24.86328125 C-5.23210785 24.18237427 -5.0970282 23.50146729 -4.95785522 22.79992676 C-4.42188449 20.09315989 -3.88739496 17.38610657 -3.35491943 14.6786499 C-2.98302451 12.78935327 -2.60874885 10.90052574 -2.234375 9.01171875 C-2.02006836 7.92334717 -1.80576172 6.83497559 -1.58496094 5.71362305 C-1 3 -1 3 0 0 Z " fill="#34A1CF" transform="translate(69,17)"/>
<path d="M0 0 C17.49 0 34.98 0 53 0 C54.86130798 21.75403697 55.21576211 43.18405364 55 65 C47.41 65 39.82 65 32 65 C32 56.09 32 47.18 32 38 C29.03 38 26.06 38 23 38 C23 46.91 23 55.82 23 65 C15.74 65 8.48 65 1 65 C0.08955191 61.35820763 -0.12119992 58.66076358 -0.11352539 54.94628906 C-0.11344986 53.72532532 -0.11337433 52.50436157 -0.11329651 51.24639893 C-0.10813522 49.93274353 -0.10297394 48.61908813 -0.09765625 47.265625 C-0.09579021 45.9037074 -0.09436718 44.54178912 -0.09336853 43.17987061 C-0.08955803 39.60258111 -0.07974032 36.02533248 -0.06866455 32.44805908 C-0.05841884 28.79480553 -0.05380929 25.14154515 -0.04882812 21.48828125 C-0.03864791 14.32548479 -0.01907255 7.16280042 0 0 Z " fill="#34A0CE" transform="translate(309,17)"/>
<path d="M0 0 C17.49 0 34.98 0 53 0 C54.7015625 11.6325 54.7015625 11.6325 56.4375 23.5 C56.97201782 27.1187207 56.97201782 27.1187207 57.51733398 30.81054688 C59.17890937 42.22157604 60.50112423 53.47667238 61 65 C53.41 65 45.82 65 38 65 C37.505 61.844375 37.01 58.68875 36.5 55.4375 C36.34337891 54.4570874 36.18675781 53.4766748 36.02539062 52.46655273 C35.27630859 47.58017963 34.83727834 42.94267049 35 38 C32.36 38 29.72 38 27 38 C27.3110685 40.06271639 27.62391516 42.12516466 27.9375 44.1875 C28.19853516 45.91033203 28.19853516 45.91033203 28.46484375 47.66796875 C28.7714723 49.57712315 29.1157391 51.48291141 29.56640625 53.36328125 C30.19625412 57.19343721 30 61.11840201 30 65 C22.41 65 14.82 65 7 65 C5.6383252 57.17814367 4.51537845 49.40096445 3.7109375 41.50390625 C3.54871201 39.94904762 3.54871201 39.94904762 3.38320923 38.36277771 C3.15798162 36.19589434 2.93455782 34.02882276 2.71289062 31.86157227 C2.37329677 28.54587014 2.02690112 25.2309276 1.6796875 21.91601562 C1.46053728 19.79952057 1.24177341 17.68298546 1.0234375 15.56640625 C0.92034271 14.57991592 0.81724792 13.5934256 0.71102905 12.57704163 C0.57055649 11.19421242 0.57055649 11.19421242 0.42724609 9.78344727 C0.34445404 8.97802994 0.26166199 8.17261261 0.17636108 7.3427887 C-0.00742287 4.90139428 0 2.44830211 0 0 Z " fill="#35A2CF" transform="translate(445,17)"/>
<path d="M0 0 C7.59 0 15.18 0 23 0 C23.55429687 2.578125 24.10859375 5.15625 24.6796875 7.8125 C25.22217725 10.33128574 25.76512 12.84997343 26.30810547 15.36865234 C26.6829275 17.10845935 27.0572844 18.84836663 27.43115234 20.58837891 C27.97108305 23.10085644 28.5127296 25.61295907 29.0546875 28.125 C29.21935516 28.89303955 29.38402283 29.6610791 29.55368042 30.45239258 C30.34138176 34.09597604 31.16792784 37.7219372 32.08251953 41.3359375 C32.88806662 44.55298133 33.50837682 47.72251211 34 51 C36.31 51 38.62 51 41 51 C40.23790869 47.73091101 39.47564988 44.46186126 38.71313477 41.19287109 C38.06970168 38.43424278 37.42705356 35.67543314 36.78491211 32.91650391 C35.42124583 27.06143931 34.05707088 21.20680367 32.64453125 15.36328125 C32.45729492 14.58525146 32.27005859 13.80722168 32.07714844 13.00561523 C31.59780195 11.02114808 31.11354851 9.03786798 30.62890625 7.0546875 C30 4 30 4 30 0 C37.59 0 45.18 0 53 0 C54.12148438 4.59421875 54.12148438 4.59421875 55.265625 9.28125 C56.0036391 12.30324816 56.74180298 15.32520971 57.47998047 18.34716797 C57.98632132 20.42037207 58.49251059 22.4936132 58.99853516 24.56689453 C59.49014276 26.58102548 59.98196269 28.59510461 60.47399902 30.60913086 C60.95894074 32.59420116 61.44339944 34.57938952 61.92736816 36.56469727 C63.01445467 41.01490516 64.11169814 45.46152693 65.25195312 49.8984375 C65.53483185 51.00427185 65.53483185 51.00427185 65.82342529 52.13244629 C66.32061268 54.06785902 66.82363488 56.0017703 67.32714844 57.93554688 C68 61 68 61 68 65 C50.18 65 32.36 65 14 65 C10.62515908 57.1253712 10.62515908 57.1253712 10.04858398 54.04345703 C9.9151207 53.3522879 9.78165741 52.66111877 9.64414978 51.94900513 C9.51279129 51.22591156 9.3814328 50.50281799 9.24609375 49.7578125 C9.09970963 48.99000458 8.9533255 48.22219666 8.80250549 47.43112183 C8.33995598 44.99710124 7.88833744 42.56121431 7.4375 40.125 C6.98077854 37.69641326 6.52177956 35.26826988 6.06178284 32.84030151 C5.77774698 31.33695022 5.49594838 29.83317366 5.21690369 28.32888794 C4.38455577 23.87385338 3.45305583 19.45127043 2.44230652 15.03318787 C1.36299473 10.07182386 0.73977032 5.01987003 0 0 Z " fill="#339BCB" transform="translate(565,17)"/>
<path d="M0 0 C7.26 0 14.52 0 22 0 C22.18341963 17.60828414 20.55759623 34.59968395 18 52 C20.64 52 23.28 52 26 52 C26.04898438 50.84371094 26.09796875 49.68742187 26.1484375 48.49609375 C26.86360533 32.31480232 27.92402748 16.16048045 29 0 C36.59 0 44.18 0 52 0 C52.18146581 12.43040788 51.88928624 24.72636214 51.0625 37.125 C50.97564941 38.42767822 50.88879883 39.73035645 50.79931641 41.07250977 C50.40090263 46.81931554 49.9734054 52.56387065 49.49609375 58.3046875 C49.42447021 59.16819824 49.35284668 60.03170898 49.27905273 60.92138672 C49 63 49 63 48 65 C30.18 65 12.36 65 -6 65 C-6 57.05685751 -5.81929396 49.5862722 -4.94140625 41.7578125 C-4.8327977 40.7458078 -4.72418915 39.7338031 -4.61228943 38.69113159 C-4.38405843 36.57501583 -4.1528353 34.45922075 -3.91870117 32.34375 C-3.56113257 29.11264344 -3.21238469 25.88067849 -2.86523438 22.6484375 C-2.64113082 20.58067428 -2.41653875 18.51296394 -2.19140625 16.4453125 C-2.08719864 15.48585724 -1.98299103 14.52640198 -1.87562561 13.53787231 C-1.77559738 12.63608246 -1.67556915 11.7342926 -1.57250977 10.80517578 C-1.48590591 10.01974396 -1.39930206 9.23431213 -1.31007385 8.42507935 C-0.94961259 5.60592138 -0.46723985 2.80343911 0 0 Z " fill="#339BCC" transform="translate(197,17)"/>
<path d="M0 0 C3.64581687 -0.02887512 7.29160463 -0.04675585 10.9375 -0.0625 C12.49887695 -0.07506836 12.49887695 -0.07506836 14.09179688 -0.08789062 C15.57583008 -0.09272461 15.57583008 -0.09272461 17.08984375 -0.09765625 C18.46450806 -0.10551147 18.46450806 -0.10551147 19.86694336 -0.11352539 C22 0 22 0 23 1 C23.98687492 8.96810124 24.14462504 16.98134509 24 25 C26.31 25 28.62 25 31 25 C30.505 12.625 30.505 12.625 30 0 C33.609375 -0.020625 37.21875 -0.04125 40.9375 -0.0625 C42.07695068 -0.071604 43.21640137 -0.08070801 44.39038086 -0.09008789 C45.28120361 -0.09258545 46.17202637 -0.09508301 47.08984375 -0.09765625 C48.46450806 -0.10551147 48.46450806 -0.10551147 49.86694336 -0.11352539 C52 0 52 0 53 1 C53.20407016 2.34592199 53.34758719 3.70112766 53.46484375 5.05737305 C53.54162354 5.91884445 53.61840332 6.78031586 53.69750977 7.66789246 C53.77670654 8.60635513 53.85590332 9.54481781 53.9375 10.51171875 C54.06499634 11.95319023 54.06499634 11.95319023 54.19506836 13.42378235 C54.46762764 16.51133279 54.73419886 19.59936098 55 22.6875 C55.26653579 25.75771325 55.53438611 28.82779671 55.80493164 31.8976593 C55.97329766 33.81067831 56.13925275 35.72391143 56.30249023 37.63737488 C56.69646666 42.13867434 57.23077612 46.54454451 58 51 C58.12503316 55.67123883 58.04409565 60.32586155 58 65 C50.41 65 42.82 65 35 65 C33.51782313 55.8290306 32.72205565 47.29569445 33 38 C30.36 38 27.72 38 25 38 C25.165 39.11375 25.33 40.2275 25.5 41.375 C26.39524921 49.20527828 26.05825268 57.13588823 26 65 C18.74 65 11.48 65 4 65 C2.64658211 54.85505246 1.5797293 44.78913646 0.99462891 34.57275391 C0.87498846 32.49980008 0.74465821 30.42770829 0.61328125 28.35546875 C0.03766615 18.89499652 -0.09983543 9.47644211 0 0 Z " fill="#349ECD" transform="translate(385,17)"/>
<path d="M0 0 C7.59 0 15.18 0 23 0 C25.25 12.375 25.25 12.375 25 19 C27.64 19 30.28 19 33 19 C32.505 18.01 32.505 18.01 32 17 C31.60669092 14.12338909 31.25379157 11.25985718 30.9375 8.375 C30.628125 5.61125 30.31875 2.8475 30 0 C37.59 0 45.18 0 53 0 C54.4375 8.375 54.4375 8.375 54.88452148 11.00927734 C55.54471381 15.12502857 55.54471381 15.12502857 57 19 C57 20.98 57 22.96 57 25 C52.05 25 47.1 25 42 25 C42.495 28.465 42.495 28.465 43 32 C48.28 32 53.56 32 59 32 C59.7122714 35.32393319 60.42399911 38.64798393 61.1328125 41.97265625 C61.69706193 44.60901895 62.27779218 47.24005426 62.8671875 49.87109375 C63.13789062 51.08925781 63.40859375 52.30742188 63.6875 53.5625 C64.06455078 55.23505859 64.06455078 55.23505859 64.44921875 56.94140625 C65 60 65 60 65 65 C57.08 65 49.16 65 41 65 C40.505 62.256875 40.01 59.51375 39.5 56.6875 C39.34337891 55.82729248 39.18675781 54.96708496 39.02539062 54.08081055 C38.90357422 53.39801025 38.78175781 52.71520996 38.65625 52.01171875 C38.53056641 51.31522217 38.40488281 50.61872559 38.27539062 49.90112305 C38 48 38 48 38 45 C35.36 45 32.72 45 30 45 C30.2165625 45.85722656 30.433125 46.71445312 30.65625 47.59765625 C31.07390625 49.31275391 31.07390625 49.31275391 31.5 51.0625 C31.91765625 52.75052734 31.91765625 52.75052734 32.34375 54.47265625 C33 58 33 58 33 65 C25.41 65 17.82 65 10 65 C7.69339787 56.10310608 6.31796855 47.35784322 5.20263672 38.24829102 C4.14167794 29.72119796 2.76573055 21.26634847 1.26977539 12.80541992 C1.10469482 11.85642822 0.93961426 10.90743652 0.76953125 9.9296875 C0.62104736 9.09679199 0.47256348 8.26389648 0.31958008 7.40576172 C0 5 0 5 0 0 Z " fill="#339DCD" transform="translate(505,17)"/>
<path d="M0 0 C17.49 0 34.98 0 53 0 C51 12 51 12 50 13 C47.46950598 13.07313567 44.96695163 13.09247527 42.4375 13.0625 C41.72658203 13.05798828 41.01566406 13.05347656 40.28320312 13.04882812 C38.52209987 13.03700864 36.76103964 13.01907263 35 13 C34.89977539 13.54712646 34.79955078 14.09425293 34.69628906 14.65795898 C32.67521334 25.63065865 30.51038511 36.53261052 27.875 47.375 C27.16250089 50.32678201 26.50046365 53.27904766 25.875 56.25 C25 60 25 60 23 65 C15.41 65 7.82 65 0 65 C1.37075309 54.99064671 3.4924912 45.39025315 6 35.625 C6.35990243 34.2019562 6.71927975 32.7787795 7.078125 31.35546875 C8.63449651 25.20885532 10.25767015 19.09815449 12 13 C7.05 13 2.1 13 -3 13 C-2 7 -2 7 0 0 Z " fill="#35A8D3" transform="translate(9,17)"/>
<path d="M0 0 C7.26 0 14.52 0 22 0 C22.02307052 5.7983907 22.04294949 11.59661935 22.05493164 17.39501953 C22.05993176 19.36377505 22.06673402 21.33252691 22.07543945 23.30126953 C22.08769573 26.14616809 22.09327167 28.99101717 22.09765625 31.8359375 C22.10281754 32.70302338 22.10797882 33.57010925 22.11329651 34.46347046 C22.1138334 40.43523989 21.60060831 45.99391689 21 52 C28.59 52 36.18 52 44 52 C44 56.29 44 60.58 44 65 C28.82 65 13.64 65 -2 65 C-3.12513876 53.74861245 -3.12513876 53.74861245 -2.94580078 49.56958008 C-2.90891144 48.63193314 -2.87202209 47.69428619 -2.83401489 46.72822571 C-2.7882431 45.75185654 -2.74247131 44.77548737 -2.6953125 43.76953125 C-2.65187714 42.73487228 -2.60844177 41.70021332 -2.56369019 40.63420105 C-2.47111542 38.46342619 -2.37513224 36.29279421 -2.27587891 34.12231445 C-2.12496181 30.81166226 -1.98545015 27.50067492 -1.84765625 24.18945312 C-1.75587658 22.07028345 -1.66345089 19.95114164 -1.5703125 17.83203125 C-1.52858917 16.84958939 -1.48686584 15.86714752 -1.44387817 14.85493469 C-1.37908768 13.462649 -1.37908768 13.462649 -1.31298828 12.04223633 C-1.2766629 11.23522781 -1.24033752 10.4282193 -1.20291138 9.59675598 C-0.9517564 6.38260305 -0.45593548 3.19154833 0 0 Z " fill="#3298CA" transform="translate(257,17)"/>
<path d="M0 0 C0.33 0 0.66 0 1 0 C0.97679687 0.95519531 0.95359375 1.91039063 0.9296875 2.89453125 C0.83088947 9.97270463 0.96085046 16.49701866 2.5625 23.4375 C3 26 3 26 3 33 C-14.16 33 -31.32 33 -49 33 C-49.99 30.03 -50.98 27.06 -52 24 C-52.556875 22.55625 -53.11375 21.1125 -53.6875 19.625 C-55 16 -55 16 -55 13 C-37.18 13 -19.36 13 -1 13 C-0.505 6.565 -0.505 6.565 0 0 Z " fill="#1C52A1" transform="translate(246,69)"/>
<path d="M0 0 C0.66 0.99 1.32 1.98 2 3 C4.024822 3.40035846 4.024822 3.40035846 6.390625 3.2578125 C7.31423828 3.24298828 8.23785156 3.22816406 9.18945312 3.21289062 C10.19943359 3.18388672 11.20941406 3.15488281 12.25 3.125 C22.35341864 2.96860033 32.40524995 3.12951439 42.5 3.5 C43.84928381 3.54834109 45.19856766 3.59668096 46.54785156 3.64501953 C49.6987083 3.75999325 52.84940382 3.87812509 56 4 C55.01375872 5.67484504 54.00917664 7.33887379 53 9 C52.65869049 9.59523468 52.31738098 10.19046936 51.96572876 10.80374146 C48.34452328 16.83844871 44.22742973 22.81078735 37.17181396 24.79559326 C29.19180016 25.88087765 21.2009802 25.36775034 13.1875 24.9375 C10.74174187 24.86214868 8.29575989 24.79372686 5.84960938 24.73242188 C-0.10519565 24.56821197 -6.05154232 24.31824727 -12 24 C-9.82491062 19.49056377 -7.01907494 15.42682268 -4.18945312 11.30859375 C-1.69478113 7.54412963 -0.4015891 4.60770655 0 0 Z " fill="#1C52A1" transform="translate(577,78)"/>
<path d="M0 0 C7.92 0 15.84 0 24 0 C24 11.22 24 22.44 24 34 C9.15 34 -5.7 34 -21 34 C-24.48214286 16.58928571 -24.48214286 16.58928571 -24 8 C-23.67 8 -23.34 8 -23 8 C-23 9.98 -23 11.96 -23 14 C-7.82 14 7.36 14 23 14 C23 9.71 23 5.42 23 1 C15.41 1 7.82 1 0 1 C0 0.67 0 0.34 0 0 Z " fill="#1C52A0" transform="translate(278,68)"/>
<path d="M0 0 C2.97 0 5.94 0 9 0 C9 7.92 9 15.84 9 24 C8.67 24 8.34 24 8 24 C8 16.41 8 8.82 8 1 C5.69 1 3.38 1 1 1 C1.00785522 2.82374146 1.00785522 2.82374146 1.01586914 4.68432617 C1.03399624 9.20368715 1.04546021 13.72304492 1.05493164 18.24243164 C1.05995422 20.19686423 1.06677349 22.15129306 1.07543945 24.10571289 C1.08759589 26.91814093 1.09324913 29.73051919 1.09765625 32.54296875 C1.10281754 33.41398727 1.10797882 34.2850058 1.11329651 35.18241882 C1.11340981 36.41312859 1.11340981 36.41312859 1.11352539 37.66870117 C1.115746 38.38595871 1.11796661 39.10321625 1.12025452 39.84220886 C1 42 1 42 0 47 C-7.59 47 -15.18 47 -23 47 C-23 39.08 -23 31.16 -23 23 C-22.67 24.32 -22.34 25.64 -22 27 C-14.74 27 -7.48 27 0 27 C0 18.09 0 9.18 0 0 Z " fill="#1E539F" transform="translate(332,55)"/>
<path d="M0 0 C0.33 0 0.66 0 1 0 C1.6332995 10.27352526 0.01889457 19.25224403 -3 29 C-4 30 -4 30 -6.13305664 30.11352539 C-7.04949951 30.10828857 -7.96594238 30.10305176 -8.91015625 30.09765625 C-9.89951172 30.09443359 -10.88886719 30.09121094 -11.90820312 30.08789062 C-12.94912109 30.07951172 -13.99003906 30.07113281 -15.0625 30.0625 C-16.10728516 30.05798828 -17.15207031 30.05347656 -18.22851562 30.04882812 C-20.8190666 30.03699913 -23.40950559 30.02051689 -26 30 C-26.08238459 25.41392437 -25.73904002 21.62976149 -24.51171875 17.19921875 C-23.57912729 13.1912112 -23.3189103 9.09547965 -23 5 C-22.67 5 -22.34 5 -22 5 C-22 6.65 -22 8.3 -22 10 C-14.74 10 -7.48 10 0 10 C0 6.7 0 3.4 0 0 Z " fill="#1C52A0" transform="translate(411,72)"/>
<path d="M0 0 C0.33 0 0.66 0 1 0 C0.99097656 0.62003906 0.98195312 1.24007812 0.97265625 1.87890625 C1.24237414 9.93526237 3.93446563 15.85905572 7.50390625 22.91015625 C9 26 9 26 9 28 C1.41 28 -6.18 28 -14 28 C-15.485 25.07125 -16.97 22.1425 -18.5 19.125 C-18.96986328 18.20348145 -19.43972656 17.28196289 -19.92382812 16.33251953 C-20.28927734 15.60661621 -20.65472656 14.88071289 -21.03125 14.1328125 C-21.40830078 13.38918457 -21.78535156 12.64555664 -22.17382812 11.87939453 C-23 10 -23 10 -23 8 C-15.41 8 -7.82 8 0 8 C0 5.36 0 2.72 0 0 Z " fill="#1C52A0" transform="translate(143,74)"/>
<path d="M0 0 C0.33 0 0.66 0 1 0 C1 1.65 1 3.3 1 5 C8.26 5 15.52 5 23 5 C23 3.35 23 1.7 23 0 C23.33 0 23.66 0 24 0 C24.10957031 0.71285156 24.21914062 1.42570312 24.33203125 2.16015625 C25.36656857 8.62206317 25.36656857 8.62206317 27.5625 14.75 C29 18 29 18 30 25 C22.74 25 15.48 25 8 25 C0.14285714 8 0.14285714 8 0 0 Z " fill="#1C53A1" transform="translate(159,77)"/>
<path d="M0 0 C0.33 0 0.66 0 1 0 C1.73766818 6.79576814 -0.72109414 11.10782803 -4 16.9375 C-5.65 19.928125 -7.3 22.91875 -9 26 C-16.26 26 -23.52 26 -31 26 C-30.29260504 22.46302519 -29.84071052 20.30330382 -28.37109375 17.23046875 C-28.08935303 16.63387451 -27.8076123 16.03728027 -27.51733398 15.42260742 C-26.98281616 14.31622925 -26.98281616 14.31622925 -26.4375 13.1875 C-25.303125 10.815625 -24.16875 8.44375 -23 6 C-15.41 6 -7.82 6 0 6 C0 4.02 0 2.04 0 0 Z " fill="#1C52A1" transform="translate(506,76)"/>
<path d="M0 0 C0.33 0.99 0.66 1.98 1 3 C8.59 3 16.18 3 24 3 C21.63928357 10.08214928 19.1374276 16.30116809 16 23 C8.74 23 1.48 23 -6 23 C-5.26883957 18.6130374 -4.56789856 15.51197573 -3 11.5 C-1.55569712 7.6642246 -0.44329168 4.10044805 0 0 Z " fill="#1C51A0" transform="translate(451,79)"/>
<path d="M0 0 C0.33 0 0.66 0 1 0 C0.67443903 9.11570721 -2.67462556 16.58043493 -6 25 C-13.26 25 -20.52 25 -28 25 C-27.06508817 17.52070533 -25.47132384 12.01537089 -23 5 C-15.41 5 -7.82 5 0 5 C0 3.35 0 1.7 0 0 Z " fill="#1C52A1" transform="translate(443,77)"/>
<path d="M0 0 C0.33 0 0.66 0 1 0 C1.350625 1.19625 1.70125 2.3925 2.0625 3.625 C4.30103034 10.4166576 7.71359345 16.67029095 11 23 C3.47094768 24.17211391 -4.62660471 25.37659173 -12 23 C-17.61332688 18.2156561 -20.62163669 10.85231595 -23 4 C-23 3.67 -23 3.34 -23 3 C-15.41 3 -7.82 3 0 3 C0 2.01 0 1.02 0 0 Z " fill="#1C52A1" transform="translate(111,79)"/>
<path d="M0 0 C0.34224609 0.77537109 0.34224609 0.77537109 0.69140625 1.56640625 C2.48318502 4.8985799 4.71095596 7.88845195 6.9375 10.9375 C9.80362014 14.8716358 12.57001117 18.77358379 15 23 C11.31387336 23.26319835 7.63017002 23.42176303 3.9375 23.5625 C2.89916016 23.63791016 1.86082031 23.71332031 0.79101562 23.79101562 C-6.82031779 24.00848229 -6.82031779 24.00848229 -10.30810547 21.02685547 C-15 15.12681878 -15 15.12681878 -15 12 C-15.66 12 -16.32 12 -17 12 C-18.98 9.03 -20.96 6.06 -23 3 C-15.41 3 -7.82 3 0 3 C0 2.01 0 1.02 0 0 Z " fill="#1C52A1" transform="translate(32,79)"/>
<path d="M0 0 C-0.32685791 0.57935303 -0.65371582 1.15870605 -0.99047852 1.75561523 C-2.93832014 5.23059912 -4.8412018 8.64386858 -6.46484375 12.28515625 C-8.33568285 15.81344963 -9.68880126 17.69692419 -13 20 C-20.21611902 21.3807672 -27.73013906 20.67053026 -35 20 C-34.33333333 18.33333333 -33.66666667 16.66666667 -33 15 C-32.34644531 13.13408203 -32.34644531 13.13408203 -31.6796875 11.23046875 C-25.51400636 -3.52370268 -14.29413508 -1.65147312 0 0 Z " fill="#1C52A1" transform="translate(570,82)"/>
<path d="M0 0 C7.59 0 15.18 0 23 0 C21.75826576 3.1043356 20.7118012 5.69290179 19.08984375 8.515625 C18.73986328 9.12664062 18.38988281 9.73765625 18.02929688 10.3671875 C17.66900391 10.98851563 17.30871094 11.60984375 16.9375 12.25 C16.57333984 12.88679688 16.20917969 13.52359375 15.83398438 14.1796875 C13.14074248 18.85925752 13.14074248 18.85925752 12 20 C10.36527118 20.08700342 8.72685945 20.10701063 7.08984375 20.09765625 C6.10048828 20.09443359 5.11113281 20.09121094 4.09179688 20.08789062 C3.05087891 20.07951172 2.00996094 20.07113281 0.9375 20.0625 C-0.10728516 20.05798828 -1.15207031 20.05347656 -2.22851562 20.04882812 C-4.8190666 20.03699913 -7.40950559 20.02051689 -10 20 C-8.56361932 15.08606608 -6.45681753 10.99607227 -3.875 6.625 C-2.59625 4.43875 -1.3175 2.2525 0 0 Z " fill="#1C52A1" transform="translate(515,82)"/>
<path d="M0 0 C0.5259375 0.98871094 1.051875 1.97742188 1.59375 2.99609375 C2.37548231 4.24385879 3.16228307 5.48845746 3.953125 6.73046875 C4.75382806 8.06672403 5.55064839 9.40531286 6.34375 10.74609375 C6.75496094 11.43058594 7.16617188 12.11507812 7.58984375 12.8203125 C10.59375 17.86008877 10.59375 17.86008877 10.59375 18.99609375 C3.03738317 20.11975277 -4.98163407 21.21308638 -12.40625 18.99609375 C-18.12903714 14.61803217 -21.80731224 7.6273907 -24.40625 0.99609375 C-24.40625 0.33609375 -24.40625 -0.32390625 -24.40625 -1.00390625 C-20.82530415 -1.31721666 -17.24251145 -1.57209219 -13.65625 -1.81640625 C-12.64046875 -1.90599609 -11.6246875 -1.99558594 -10.578125 -2.08789062 C-3.07053207 -2.55711518 -3.07053207 -2.55711518 0 0 Z " fill="#1C52A1" transform="translate(81.40625,83.00390625)"/>
<path d="M0 0 C0.33 0 0.66 0 1 0 C0.52908493 8.48886373 -0.31038866 16.66458404 -2 25 C-9.26 25 -16.52 25 -24 25 C-24 15 -24 15 -23 5 C-15.41 5 -7.82 5 0 5 C0 3.35 0 1.7 0 0 Z " fill="#1C52A2" transform="translate(364,77)"/>
<path d="M0 0 C17.16 0 34.32 0 52 0 C52 0.33 52 0.66 52 1 C41.605 2.485 41.605 2.485 31 4 C30.67 4.99 30.34 5.98 30 7 C28.35 7 26.7 7 25 7 C25 6.01 25 5.02 25 4 C22.87213201 4.20079881 20.74754018 4.43657063 18.625 4.6875 C17.44164063 4.81511719 16.25828125 4.94273438 15.0390625 5.07421875 C14.03617188 5.37972656 13.03328125 5.68523438 12 6 C10.73529726 8.47368532 10.73529726 8.47368532 10 11 C6.875 11.8125 6.875 11.8125 4 12 C3.01 15.3 2.02 18.6 1 22 C1.99 22 2.98 22 4 22 C4 22.66 4 23.32 4 24 C3.01 24 2.02 24 1 24 C-2.95239883 34.13674054 -5.94040764 44.56887476 -9 55 C-9.33 55 -9.66 55 -10 55 C-9.58321271 44.85253192 -7.59986371 35.08643603 -5.56152344 25.16967773 C-4.99502781 22.41330706 -4.43810408 19.65513198 -3.8828125 16.89648438 C-3.52658494 15.1379107 -3.16983344 13.37944305 -2.8125 11.62109375 C-2.64580811 10.79927109 -2.47911621 9.97744843 -2.30737305 9.13072205 C-1.66728141 6.02184351 -1.00475472 3.01426415 0 0 Z " fill="#6AEDF4" transform="translate(69,17)"/>
<path d="M0 0 C17.16 0 34.32 0 52 0 C51.67 0.66 51.34 1.32 51 2 C48.1640625 2.37890625 48.1640625 2.37890625 44.625 2.5625 C39.72744526 2.82302499 39.72744526 2.82302499 35 4 C33.68 4 32.36 4 31 4 C30.67 4.99 30.34 5.98 30 7 C27.525 6.505 27.525 6.505 25 6 C25 5.34 25 4.68 25 4 C21.04 4.66 17.08 5.32 13 6 C12.34 7.98 11.68 9.96 11 12 C9.35 12.33 7.7 12.66 6 13 C5.67 15.97 5.34 18.94 5 22 C5.66 22 6.32 22 7 22 C7 22.66 7 23.32 7 24 C6.27683594 24.63228516 6.27683594 24.63228516 5.5390625 25.27734375 C3.41638623 27.65323267 3.53400108 29.42013665 3.375 32.5625 C3.08071749 37.83856502 3.08071749 37.83856502 2 40 C1.77141886 42.0374763 1.58975722 44.08040303 1.4375 46.125 C1.35371094 47.22070312 1.26992188 48.31640625 1.18359375 49.4453125 C1.12300781 50.28835937 1.06242187 51.13140625 1 52 C0.67 52 0.34 52 0 52 C0 34.84 0 17.68 0 0 Z " fill="#71FBFD" transform="translate(310,17)"/>
<path d="M0 0 C7.26 0 14.52 0 22 0 C19.90217213 2.09782787 18.6200793 2.6509396 15.875 3.625 C15.15054688 3.88539062 14.42609375 4.14578125 13.6796875 4.4140625 C12.84824219 4.70410156 12.84824219 4.70410156 12 5 C12.969375 5.12375 13.93875 5.2475 14.9375 5.375 C16.4534375 5.684375 16.4534375 5.684375 18 6 C19.4783226 8.95664519 19.06032783 11.74229737 19 15 C15.37 15 11.74 15 8 15 C8.165 16.794375 8.33 18.58875 8.5 20.4375 C9.31834853 31.60622848 9.08568206 42.80860458 9 54 C6.64097864 51.64097864 6.65119106 50.84643803 6.2890625 47.6171875 C6.18053955 46.7082373 6.0720166 45.79928711 5.96020508 44.86279297 C5.8495874 43.87682129 5.73896973 42.89084961 5.625 41.875 C4.4554381 32.1294259 2.9796192 22.47326794 1.27001953 12.80810547 C1.1048584 11.85822754 0.93969727 10.90834961 0.76953125 9.9296875 C0.62104736 9.09679199 0.47256348 8.26389648 0.31958008 7.40576172 C0 5 0 5 0 0 Z " fill="#56DEE9" transform="translate(505,17)"/>
<path d="M0 0 C17.16 0 34.32 0 52 0 C52 0.33 52 0.66 52 1 C47.23692563 1.95261487 42.8333472 2.08333357 38 2 C38 2.66 38 3.32 38 4 C36.02 4 34.04 4 32 4 C31.67 4.99 31.34 5.98 31 7 C29.35 7 27.7 7 26 7 C26 6.01 26 5.02 26 4 C21.71 4.66 17.42 5.32 13 6 C12.67 7.65 12.34 9.3 12 11 C10.02 11 8.04 11 6 11 C6 23.54 6 36.08 6 49 C5.67 49 5.34 49 5 49 C2.66058448 32.68972628 1.15512943 16.43838033 0 0 Z " fill="#6EF5F8" transform="translate(445,17)"/>
<path d="M0 0 C7.26 0 14.52 0 22 0 C20.35 1.65 18.7 3.3 17 5 C15.0625 4.6875 15.0625 4.6875 13 4 C9.80376352 4.87050779 9.80376352 4.87050779 7 6 C9.31 6.33 11.62 6.66 14 7 C15.22596039 10.67788118 14.84310077 11.78449613 14 16 C10.37 16.33 6.74 16.66 3 17 C0.03 28.88 -2.94 40.76 -6 53 C-6.33 53 -6.66 53 -7 53 C-7.34583166 44.73644356 -6.01111458 36.86284709 -4.625 28.75 C-4.40035794 27.40766633 -4.17639578 26.06521869 -3.953125 24.72265625 C-3.51560178 22.09270631 -3.07550905 19.46323868 -2.63378906 16.83398438 C-1.70736662 11.22977096 -0.85116504 5.61609829 0 0 Z " fill="#66F0F5" transform="translate(129,17)"/>
<path d="M0 0 C6.93 0 13.86 0 21 0 C20.34 1.65 19.68 3.3 19 5 C18.01 5 17.02 5 16 5 C16 4.34 16 3.68 16 3 C14.9171875 3.495 14.9171875 3.495 13.8125 4 C10.98302573 5.00603529 8.97104534 5.16977402 6 5 C6 6.32 6 7.64 6 9 C7.98 9 9.96 9 12 9 C12 10.32 12 11.64 12 13 C10.02 13 8.04 13 6 13 C6.02320313 14.00933594 6.04640625 15.01867187 6.0703125 16.05859375 C6.2720068 29.44920449 5.21782786 42.67191056 4 56 C3.67 56 3.34 56 3 56 C1.94184883 49.10236048 1.4877795 42.20967203 1.07006836 35.25170898 C0.93971346 33.09905259 0.80120205 30.94702895 0.66210938 28.79492188 C0.06368937 19.177664 -0.08143706 9.63671934 0 0 Z " fill="#68F7FA" transform="translate(385,17)"/>
<path d="M0 0 C7.26 0 14.52 0 22 0 C18 3 18 3 14.8125 3.9375 C13.4203125 4.4634375 13.4203125 4.4634375 12 5 C11.18553891 7.00572641 11.18553891 7.00572641 11 9 C10.01 9.495 10.01 9.495 9 10 C9.3094975 14.47937936 9.62314224 18.95845931 9.9375 23.4375 C10.02451172 24.69755859 10.11152344 25.95761719 10.20117188 27.25585938 C10.57413282 32.54637939 10.94650519 37.82527269 11.5625 43.09375 C12.05170521 47.46165363 12.0696374 51.61284399 12 56 C10.02710225 52.56383446 9.31271198 49.23858178 8.5625 45.36328125 C8.43689697 44.72440475 8.31129395 44.08552826 8.18188477 43.42729187 C7.78244004 41.39005237 7.39093369 39.35138811 7 37.3125 C6.60845827 35.29702687 6.21525891 33.28188394 5.82156372 31.26683044 C5.44368819 29.33245905 5.06729074 27.39779911 4.69091797 25.46313477 C4.12494262 22.62625833 3.5251016 19.8046407 2.8828125 16.984375 C1.60540447 11.37025925 0.83916947 5.69436428 0 0 Z " fill="#66EFF5" transform="translate(565,17)"/>
<path d="M0 0 C7.26 0 14.52 0 22 0 C19.33763128 2.66236872 16.67117635 3.05939079 13.09375 4.0234375 C10.46558975 5.24925851 10.18526032 6.4353419 9 9 C8.01 9.33 7.02 9.66 6 10 C2.1619852 18.8640661 1.28695104 29.56180316 -0.45043945 39.05786133 C-0.82780903 41.11116081 -1.2124072 43.16301043 -1.59765625 45.21484375 C-1.81945557 46.42261475 -2.04125488 47.63038574 -2.26977539 48.87475586 C-2.90729912 51.60325509 -3.70674017 53.55447864 -5 56 C-5.10465428 49.43214608 -4.8449597 43.0152899 -4.16015625 36.484375 C-4.07374374 35.62491272 -3.98733124 34.76545044 -3.89830017 33.87994385 C-3.71652467 32.08150815 -3.53238422 30.28331 -3.34594727 28.48535156 C-3.06181205 25.74336107 -2.78517965 23.00069139 -2.50976562 20.2578125 C-2.33116419 18.49995575 -2.15214243 16.74214164 -1.97265625 14.984375 C-1.89032242 14.17176208 -1.80798859 13.35914917 -1.72315979 12.52191162 C-1.64315231 11.75381165 -1.56314484 10.98571167 -1.48071289 10.19433594 C-1.41187393 9.52722595 -1.34303497 8.86011597 -1.27210999 8.17279053 C-0.92950422 5.43709317 -0.45325903 2.71955419 0 0 Z " fill="#64EEF4" transform="translate(197,17)"/>
<path d="M0 0 C7.26 0 14.52 0 22 0 C19.47524538 2.52475462 17.26502003 3.04307871 13.875 4.125 C12.77929688 4.47820313 11.68359375 4.83140625 10.5546875 5.1953125 C9.71164062 5.46085937 8.86859375 5.72640625 8 6 C8.061875 7.175625 8.061875 7.175625 8.125 8.375 C8 11 8 11 6 13 C3.65255235 19.57285343 2.91910819 26.49254565 1.9375 33.375 C1.76412109 34.55578125 1.59074219 35.7365625 1.41210938 36.953125 C0.49079571 43.29289261 -0.33823066 49.62791176 -1 56 C-1.33 56 -1.66 56 -2 56 C-2.18990235 29.22961151 -2.18990235 29.22961151 -1.5625 16.1875 C-1.52326416 15.35452393 -1.48402832 14.52154785 -1.44360352 13.66333008 C-1.1942797 9.01710189 -0.66391911 4.64743376 0 0 Z " fill="#67EEF3" transform="translate(257,17)"/>
<path d="M0 0 C7.26 0 14.52 0 22 0 C18.68273496 2.48794878 17.00386091 3.52821942 13.25 4.6875 C12.45078125 4.93886719 11.6515625 5.19023437 10.828125 5.44921875 C9.92320312 5.72185547 9.92320312 5.72185547 9 6 C9.06058594 6.96035156 9.12117187 7.92070312 9.18359375 8.91015625 C9.94507476 21.2669859 10.49000227 33.6305051 11 46 C8.53112105 42.29668157 7.80243402 38.59107794 6.8359375 34.31640625 C6.63900299 33.46449203 6.44206848 32.61257782 6.23916626 31.73484802 C5.82442432 29.93418794 5.41274529 28.13282004 5.00390625 26.33081055 C4.37778475 23.57475788 3.74043812 20.82148014 3.1015625 18.06835938 C2.69984851 16.31786249 2.29878506 14.56721615 1.8984375 12.81640625 C1.7078476 11.99338516 1.51725769 11.17036407 1.32089233 10.32240295 C1.14716095 9.55157883 0.97342957 8.7807547 0.79443359 7.98657227 C0.64058197 7.31167252 0.48673035 6.63677277 0.32821655 5.94142151 C0 4 0 4 0 0 Z " fill="#64F0F6" transform="translate(595,17)"/>
<path d="M0 0 C7.59 0 15.18 0 23 0 C21 2 21 2 18.1015625 2.5078125 C14.24369291 3.19269272 11.3955732 4.02572907 8 6 C5.7345533 10.24348598 5.09957625 14.60719593 4.41992188 19.31005859 C3.75180223 23.58990874 2.83669558 27.81689304 1.95898438 32.05786133 C0.93461874 37.03118471 -0.03401908 42.01506145 -1 47 C-1.33 47 -1.66 47 -2 47 C-2.45806695 31.29848302 -1.10105887 15.65076533 0 0 Z " fill="#63EEF4" transform="translate(226,17)"/>
<path d="M0 0 C17.16 0 34.32 0 52 0 C51.34 1.65 50.68 3.3 50 5 C48.68 5 47.36 5 46 5 C46 3.68 46 2.36 46 1 C45.34 1.33 44.68 1.66 44 2 C42.04045479 2.19921676 40.07538956 2.34529672 38.109375 2.46484375 C36.92472656 2.54283203 35.74007812 2.62082031 34.51953125 2.70117188 C32.02231648 2.85773301 29.52491949 3.01141619 27.02734375 3.16210938 C25.24263672 3.28102539 25.24263672 3.28102539 23.421875 3.40234375 C21.79137207 3.50276978 21.79137207 3.50276978 20.12792969 3.60522461 C16.84517872 4.01953996 14.06131402 4.74879322 11 6 C10.67 6.66 10.34 7.32 10 8 C8.68 8 7.36 8 6 8 C5.67 7.34 5.34 6.68 5 6 C2.03 8.475 2.03 8.475 -1 11 C-2.76732001 6.58169998 -1.5154198 5.3039693 0 0 Z " fill="#6EF6F9" transform="translate(9,17)"/>
<path d="M0 0 C7.26 0 14.52 0 22 0 C20 2 20 2 8 5 C7.67 13.91 7.34 22.82 7 32 C3.75750068 28.75750068 3.51571364 27.94527067 2.83203125 23.6328125 C2.66123047 22.58222656 2.49042969 21.53164063 2.31445312 20.44921875 C2.14880859 19.35222656 1.98316406 18.25523438 1.8125 17.125 C1.63525391 16.03574219 1.45800781 14.94648438 1.27539062 13.82421875 C0.52817751 9.11014066 0 4.79397331 0 0 Z " fill="#6BF5F8" transform="translate(505,17)"/>
<path d="M0 0 C6.93 0 13.86 0 21 0 C20 2 20 2 18.109375 2.8515625 C10.28930818 5.41509434 10.28930818 5.41509434 6 5 C6 6.98 6 8.96 6 11 C8.31 11.66 10.62 12.32 13 13 C13 14.65 13 16.3 13 18 C10 18 7 18 4 18 C3.34 19.32 2.68 20.64 2 22 C1.66076424 19.64655194 1.32849466 17.2924516 1 14.9375 C0.85691406 13.95233398 0.85691406 13.95233398 0.7109375 12.94726562 C0.09989388 8.51719937 0 4.53522068 0 0 Z " fill="#68F3F8" transform="translate(415,17)"/>
<path d="M0 0 C7.26 0 14.52 0 22 0 C19.90217213 2.09782787 18.6200793 2.6509396 15.875 3.625 C15.15054688 3.88539062 14.42609375 4.14578125 13.6796875 4.4140625 C12.84824219 4.70410156 12.84824219 4.70410156 12 5 C12.99 5.33 13.98 5.66 15 6 C15 7.32 15 8.64 15 10 C13.35 10 11.7 10 10 10 C9.67 8.68 9.34 7.36 9 6 C7.28232318 9.98188718 5.58962659 13.96479403 4 18 C3.34 17.67 2.68 17.34 2 17 C1.52268937 14.12140442 1.15933035 11.33474658 0.875 8.4375 C0.58625 5.653125 0.2975 2.86875 0 0 Z " fill="#68F2F6" transform="translate(535,17)"/>
<path d="M0 0 C7.26 0 14.52 0 22 0 C19.71636622 2.28363378 18.25204532 2.7152849 15.1875 3.625 C13.90939453 4.01558594 13.90939453 4.01558594 12.60546875 4.4140625 C9.98020834 5.0044509 7.68079363 5.10588413 5 5 C4.938125 5.763125 4.87625 6.52625 4.8125 7.3125 C3.41711036 13.6454222 0.59288884 19.61066674 -3 25 C-2.48172391 16.54391649 -1.50687301 8.33803063 0 0 Z " fill="#68F0F6" transform="translate(167,17)"/>
<path d="M0 0 C0.33 0 0.66 0 1 0 C0.59182268 8.09317091 -0.41988559 15.85686664 -1.90893555 23.80883789 C-2.83559503 28.82972023 -3.45750007 33.79869157 -3.7890625 38.8984375 C-4 41 -4 41 -5 44 C-6.65 44 -8.3 44 -10 44 C-8.71017163 33.98821867 -6.46782826 24.41800429 -3.875 14.6875 C-3.49809573 13.25341334 -3.12179029 11.81916916 -2.74609375 10.38476562 C-1.83759835 6.92134083 -0.92111268 3.46009352 0 0 Z " fill="#5BE5ED" transform="translate(19,38)"/>
<path d="M0 0 C17.16 0 34.32 0 52 0 C51.67 0.66 51.34 1.32 51 2 C48.1640625 2.37890625 48.1640625 2.37890625 44.625 2.5625 C39.72744526 2.82302499 39.72744526 2.82302499 35 4 C33.68 4 32.36 4 31 4 C30.67 4.99 30.34 5.98 30 7 C27.525 6.505 27.525 6.505 25 6 C25 5.34 25 4.68 25 4 C22.69 4 20.38 4 18 4 C18 3.67 18 3.34 18 3 C23.94 2.505 23.94 2.505 30 2 C15.15 1.505 15.15 1.505 0 1 C0 0.67 0 0.34 0 0 Z " fill="#5FDEEC" transform="translate(310,17)"/>
<path d="M0 0 C2.64 0 5.28 0 8 0 C8 3.96 8 7.92 8 12 C5.36 12 2.72 12 0 12 C0 8.04 0 4.08 0 0 Z " fill="#1E1A50" transform="translate(332,30)"/>
<path d="M0 0 C4.455 0.99 4.455 0.99 9 2 C10 6 10 6 9 11 C5.37 11 1.74 11 -2 11 C-1.34 7.37 -0.68 3.74 0 0 Z " fill="#71D3EB" transform="translate(134,22)"/>
<path d="M0 0 C17.16 0 34.32 0 52 0 C51.34 1.65 50.68 3.3 50 5 C48.68 5 47.36 5 46 5 C46 3.68 46 2.36 46 1 C45.34 1.33 44.68 1.66 44 2 C37.02438978 2.98094519 30.03236679 3.13729133 23 3 C23 2.67 23 2.34 23 2 C11.615 1.505 11.615 1.505 0 1 C0 0.67 0 0.34 0 0 Z " fill="#5FDFEC" transform="translate(9,17)"/>
<path d="M0 0 C2.64 0 5.28 0 8 0 C8.33 3.96 8.66 7.92 9 12 C6.36 12 3.72 12 1 12 C0.67 8.04 0.34 4.08 0 0 Z " fill="#1E164D" transform="translate(469,30)"/>
<path d="M0 0 C2.64 0 5.28 0 8 0 C7.34 3.96 6.68 7.92 6 12 C3.69 12 1.38 12 -1 12 C-1.08159574 7.83861737 -0.98248524 4.0527516 0 0 Z " fill="#1E154C" transform="translate(89,30)"/>
<path d="M0 0 C1.47906892 -0.02689216 2.95827483 -0.04634621 4.4375 -0.0625 C5.26121094 -0.07410156 6.08492187 -0.08570313 6.93359375 -0.09765625 C9 0 9 0 10 1 C10.04092937 3.33297433 10.04241723 5.66705225 10 8 C6.7 8 3.4 8 0 8 C0 5.36 0 2.72 0 0 Z " fill="#79C3E1" transform="translate(525,44)"/>
<path d="M0 0 C3.3 0 6.6 0 10 0 C9.67 2.64 9.34 5.28 9 8 C6.03 8 3.06 8 0 8 C0 5.36 0 2.72 0 0 Z " fill="#77AED4" transform="translate(168,69)"/>
<path d="M0 0 C2.97 0 5.94 0 9 0 C10.35439668 2.70879335 10.06501451 5.00933268 10 8 C7.03 8 4.06 8 1 8 C0.67 5.36 0.34 2.72 0 0 Z " fill="#78B2D6" transform="translate(550,65)"/>
<path d="M0 0 C0.33 0 0.66 0 1 0 C1 7.59 1 15.18 1 23 C-0.65 23 -2.3 23 -4 23 C-2.49269311 2.49269311 -2.49269311 2.49269311 0 0 Z " fill="#55E4EF" transform="translate(92,59)"/>
<path d="M0 0 C0 0.33 0 0.66 0 1 C-1.65 1.33 -3.3 1.66 -5 2 C-5.66 3.98 -6.32 5.96 -7 8 C-8.65 8.33 -10.3 8.66 -12 9 C-12.33 11.97 -12.66 14.94 -13 18 C-12.34 18 -11.68 18 -11 18 C-11 18.66 -11 19.32 -11 20 C-11.99 20.33 -12.98 20.66 -14 21 C-14.3690205 7.3667426 -14.3690205 7.3667426 -12 1 C-7.9472484 0.01751476 -4.16138263 -0.08159574 0 0 Z " fill="#5FD1EB" transform="translate(328,21)"/>
<path d="M0 0 C1.47906892 -0.02689216 2.95827483 -0.04634621 4.4375 -0.0625 C5.26121094 -0.07410156 6.08492187 -0.08570312 6.93359375 -0.09765625 C9 0 9 0 10 1 C10.04080783 2.99958364 10.04254356 5.00045254 10 7 C6.7 7 3.4 7 0 7 C0 4.69 0 2.38 0 0 Z " fill="#7BD6EC" transform="translate(514,24)"/>
<path d="M0 0 C2.97 0 5.94 0 9 0 C9.33 2.31 9.66 4.62 10 7 C7.36 7 4.72 7 2 7 C0.5393715 4.35261084 0 3.10551666 0 0 Z " fill="#6ECBE6" transform="translate(609,31)"/>
<path d="M0 0 C2.37599719 3.56399578 3.15731805 7.08381174 4.125 11.1875 C4.39763672 12.31188477 4.39763672 12.31188477 4.67578125 13.45898438 C5.12251686 15.30470781 5.5619694 17.15219132 6 19 C4.35 19 2.7 19 1 19 C-0.26582219 15.13276369 -0.1118765 11.26848738 -0.0625 7.25 C-0.05798828 6.55261719 -0.05347656 5.85523437 -0.04882812 5.13671875 C-0.0371002 3.42444197 -0.01916653 1.71220967 0 0 Z " fill="#5AF3F9" transform="translate(419,63)"/>
<path d="M0 0 C1.56778787 3.13557573 2.30615672 4.83694035 2.8515625 8.109375 C3.04492188 9.24052734 3.04492188 9.24052734 3.2421875 10.39453125 C3.36851562 11.17183594 3.49484375 11.94914062 3.625 12.75 C3.7590625 13.54277344 3.893125 14.33554688 4.03125 15.15234375 C4.35987298 17.10060858 4.68070705 19.05018439 5 21 C3.35 21 1.7 21 0 21 C0 14.07 0 7.14 0 0 Z " fill="#59F1F9" transform="translate(341,61)"/>
<path d="M0 0 C2.64 0 5.28 0 8 0 C8 2.31 8 4.62 8 7 C5.36 7 2.72 7 0 7 C0 4.69 0 2.38 0 0 Z " fill="#73AAD1" transform="translate(321,72)"/>
<path d="M0 0 C2.64 0 5.28 0 8 0 C8 2.31 8 4.62 8 7 C5.36 7 2.72 7 0 7 C0 4.69 0 2.38 0 0 Z " fill="#6DB7DA" transform="translate(352,52)"/>
<path d="M0 0 C2.64 0 5.28 0 8 0 C8 2.31 8 4.62 8 7 C5.36 7 2.72 7 0 7 C0 4.69 0 2.38 0 0 Z " fill="#6ABCDD" transform="translate(263,45)"/>
<path d="M0 0 C2.64 0 5.28 0 8 0 C8 2.31 8 4.62 8 7 C5.36 7 2.72 7 0 7 C0 4.69 0 2.38 0 0 Z " fill="#72C9E6" transform="translate(393,34)"/>
<path d="M0 0 C2.64 0 5.28 0 8 0 C8 2.31 8 4.62 8 7 C5.36 7 2.72 7 0 7 C0 4.69 0 2.38 0 0 Z " fill="#73CCE7" transform="translate(237,31)"/>
<path d="M0 0 C0.66 0.33 1.32 0.66 2 1 C1.67 1.33 1.34 1.66 1 2 C3.97 2.495 3.97 2.495 7 3 C7 3.33 7 3.66 7 4 C4.03 4 1.06 4 -2 4 C-2 6.31 -2 8.62 -2 11 C1.3 11 4.6 11 8 11 C8 11.33 8 11.66 8 12 C4.37 12 0.74 12 -3 12 C-3 14.31 -3 16.62 -3 19 C-3.33 19 -3.66 19 -4 19 C-4 13.39 -4 7.78 -4 2 C-2.68 1.34 -1.36 0.68 0 0 Z " fill="#4CCDE9" transform="translate(516,20)"/>
<path d="M0 0 C2.64 0 5.28 0 8 0 C7.67 2.31 7.34 4.62 7 7 C4.36 7 1.72 7 -1 7 C-0.67 4.69 -0.34 2.38 0 0 Z " fill="#76ABD2" transform="translate(70,72)"/>
<path d="M0 0 C2.33294775 -0.04241723 4.66702567 -0.04092937 7 0 C8 1 8 1 8.0625 4.0625 C8.041875 5.031875 8.02125 6.00125 8 7 C5.69 7 3.38 7 1 7 C0.67 4.69 0.34 2.38 0 0 Z " fill="#74B8DB" transform="translate(581,55)"/>
<path d="M0 0 C2.64 0 5.28 0 8 0 C7.67 2.31 7.34 4.62 7 7 C4.69 7 2.38 7 0 7 C0 4.69 0 2.38 0 0 Z " fill="#74B8DB" transform="translate(201,55)"/>
<path d="M0 0 C0.33 0 0.66 0 1 0 C1.33937108 2.97858727 1.67162259 5.95769685 2 8.9375 C2.09539063 9.76830078 2.19078125 10.59910156 2.2890625 11.45507812 C2.89381481 17.00584043 3.09014973 22.416351 3 28 C1.00984143 24.26447545 0.15595464 20.56938756 -0.625 16.4375 C-0.7590625 15.76525391 -0.893125 15.09300781 -1.03125 14.40039062 C-1.58639857 11.54817325 -2 8.91296494 -2 6 C-1.34 6 -0.68 6 0 6 C0 4.02 0 2.04 0 0 Z " fill="#57E3ED" transform="translate(574,45)"/>
<path d="M0 0 C0.99 0.495 0.99 0.495 2 1 C2.79941308 3.52369457 3.4936108 5.99718906 4.125 8.5625 C4.30675781 9.27341797 4.48851562 9.98433594 4.67578125 10.71679688 C5.12444465 12.47602969 5.56315957 14.23779417 6 16 C4.35 16 2.7 16 1 16 C-0.06723961 12.53777385 -0.10173486 9.35960734 -0.0625 5.75 C-0.04896484 4.13351563 -0.04896484 4.13351563 -0.03515625 2.484375 C-0.02355469 1.66453125 -0.01195312 0.8446875 0 0 Z " fill="#5AF2F8" transform="translate(482,66)"/>
<path d="M0 0 C1.85811 2.787165 3.22897347 5.46303 4.625 8.5 C5.07101562 9.4590625 5.51703125 10.418125 5.9765625 11.40625 C7 14 7 14 7 17 C5.35 17 3.7 17 2 17 C0.7017874 11.23918159 -0.25706972 5.91260345 0 0 Z " fill="#58EFF8" transform="translate(544,65)"/>
<path d="M0 0 C2.31 0 4.62 0 7 0 C7.33 2.31 7.66 4.62 8 7 C5.36 7 2.72 7 0 7 C0 4.69 0 2.38 0 0 Z " fill="#76ABD2" transform="translate(463,72)"/>
<path d="M0 0 C6.15234375 -0.09765625 6.15234375 -0.09765625 8 0 C9 1 9 1 9.0625 3.5625 C9.041875 4.366875 9.02125 5.17125 9 6 C2.25 6.125 2.25 6.125 0 5 C0 3.35 0 1.7 0 0 Z " fill="#49C3E4" transform="translate(419,29)"/>
<path d="M0 0 C2.64 0 5.28 0 8 0 C8 1.98 8 3.96 8 6 C5.36 6 2.72 6 0 6 C0 4.02 0 2.04 0 0 Z " fill="#77B5D8" transform="translate(397,61)"/>
<path d="M0 0 C0.33 0 0.66 0 1 0 C0.50877547 8.13105861 -0.35266241 16.01920915 -2 24 C-2.99 23.67 -3.98 23.34 -5 23 C-4.354523 15.09290669 -2.13002861 7.60866033 0 0 Z " fill="#55D6E4" transform="translate(19,38)"/>
<path d="M0 0 C0.33 0 0.66 0 1 0 C1 1.65 1 3.3 1 5 C1.66 5 2.32 5 3 5 C1.83445193 11.0509304 0.54656904 17.03466226 -1 23 C-1.33 23 -1.66 23 -2 23 C-2.2700558 15.1683819 -1.23107719 7.72720775 0 0 Z " fill="#52D2DE" transform="translate(124,47)"/>
<path d="M0 0 C2.64 0 5.28 0 8 0 C8 1.98 8 3.96 8 6 C5.69 6 3.38 6 1 6 C0.67 4.02 0.34 2.04 0 0 Z " fill="#71BADC" transform="translate(491,52)"/>
<path d="M0 0 C2.31 0 4.62 0 7 0 C7 1.98 7 3.96 7 6 C4.36 6 1.72 6 -1 6 C-0.67 4.02 -0.34 2.04 0 0 Z " fill="#71BADC" transform="translate(105,52)"/>
<path d="M0 0 C2.64 0 5.28 0 8 0 C7.67 1.98 7.34 3.96 7 6 C4.36 6 1.72 6 -1 6 C-0.67 4.02 -0.34 2.04 0 0 Z " fill="#78B6D9" transform="translate(25,61)"/>
<path d="M0 0 C1.4540625 0.0309375 1.4540625 0.0309375 2.9375 0.0625 C2.9375 1.3825 2.9375 2.7025 2.9375 4.0625 C0.9575 4.0625 -1.0225 4.0625 -3.0625 4.0625 C-3.0625 10.0025 -3.0625 15.9425 -3.0625 22.0625 C-3.3925 22.0625 -3.7225 22.0625 -4.0625 22.0625 C-4.09137814 18.58335059 -4.10925687 15.10423169 -4.125 11.625 C-4.13337891 10.63177734 -4.14175781 9.63855469 -4.15039062 8.61523438 C-4.15361328 7.67099609 -4.15683594 6.72675781 -4.16015625 5.75390625 C-4.16539307 4.87935791 -4.17062988 4.00480957 -4.17602539 3.10375977 C-3.98994855 -0.24202186 -3.41933476 0.06978234 0 0 Z " fill="#54CEE9" transform="translate(394.0625,25.9375)"/>
<path d="M0 0 C0 0.33 0 0.66 0 1 C-1.423125 1.0928125 -1.423125 1.0928125 -2.875 1.1875 C-4.421875 1.5896875 -4.421875 1.5896875 -6 2 C-7.45291273 4.46255685 -7.45291273 4.46255685 -8 7 C-9.98 7 -11.96 7 -14 7 C-13.67 5.02 -13.34 3.04 -13 1 C-8.60563789 0.14256349 -4.47427924 -0.08948558 0 0 Z " fill="#72D8EE" transform="translate(87,21)"/>
<path d="M0 0 C2.77042109 2.77042109 2.39796106 4.76533805 2.625 8.625 C2.69976562 9.81351563 2.77453125 11.00203125 2.8515625 12.2265625 C2.92503906 13.59941406 2.92503906 13.59941406 3 15 C1.68 15 0.36 15 -1 15 C-1.18451025 4.44191344 -1.18451025 4.44191344 0 0 Z " fill="#57EDF6" transform="translate(161,67)"/>
<path d="M0 0 C0.33 0.99 0.66 1.98 1 3 C1.66 3 2.32 3 3 3 C2.23915412 7.18865681 1.12177302 11.22484795 -0.0625 15.3125 C-0.42472656 16.56675781 -0.78695312 17.82101563 -1.16015625 19.11328125 C-1.43730469 20.06589844 -1.71445312 21.01851562 -2 22 C-2.33 22 -2.66 22 -3 22 C-2.51172287 14.52165033 -1.66594452 7.31074682 0 0 Z " fill="#54D5E1" transform="translate(62,50)"/>
<path d="M0 0 C0 0.33 0 0.66 0 1 C-1.98 1.33 -3.96 1.66 -6 2 C-6.33 3.65 -6.66 5.3 -7 7 C-8.98 7 -10.96 7 -13 7 C-13 5.02 -13 3.04 -13 1 C-8.60563789 0.14256349 -4.47427924 -0.08948558 0 0 Z " fill="#77DAEF" transform="translate(464,21)"/>
<path d="M0 0 C2.31 0 4.62 0 7 0 C7 1.98 7 3.96 7 6 C4.69 6 2.38 6 0 6 C0 4.02 0 2.04 0 0 Z " fill="#7AB7D9" transform="translate(423,61)"/>
<path d="M0 0 C1.98 0 3.96 0 6 0 C7.24546405 2.49092811 6.7767578 3.41080733 6 6 C3.69 6 1.38 6 -1 6 C-0.67 4.02 -0.34 2.04 0 0 Z " fill="#51CAE8" transform="translate(111,23)"/>
<path d="M0 0 C0.33 0 0.66 0 1 0 C1.13690844 7.72772107 0.75166913 15.30881404 0 23 C-0.33 23 -0.66 23 -1 23 C-2.0712828 16.97403427 -2.09945415 11.11090483 -2 5 C-1.34 5 -0.68 5 0 5 C0 3.35 0 1.7 0 0 Z " fill="#55DFEB" transform="translate(389,50)"/>
<path d="M0 0 C1.4540625 0.0309375 1.4540625 0.0309375 2.9375 0.0625 C2.9375 2.0425 2.9375 4.0225 2.9375 6.0625 C0.9575 6.0625 -1.0225 6.0625 -3.0625 6.0625 C-3.44468767 4.40635343 -3.77645102 2.73792976 -4.0625 1.0625 C-3.0625 0.0625 -3.0625 0.0625 0 0 Z " fill="#67D1EB" transform="translate(356.0625,22.9375)"/>
<path d="M0 0 C1.4540625 0.0309375 1.4540625 0.0309375 2.9375 0.0625 C2.9375 2.0425 2.9375 4.0225 2.9375 6.0625 C0.9575 6.0625 -1.0225 6.0625 -3.0625 6.0625 C-3.44468767 4.40635343 -3.77645102 2.73792976 -4.0625 1.0625 C-3.0625 0.0625 -3.0625 0.0625 0 0 Z " fill="#58CCE9" transform="translate(492.0625,22.9375)"/>
<path d="M0 0 C6.93 0 13.86 0 21 0 C20.34 1.65 19.68 3.3 19 5 C18.01 5 17.02 5 16 5 C16 4.34 16 3.68 16 3 C13.0384304 1.5192152 10.16493705 1.64685963 6.875 1.4375 C5.59367187 1.35371094 4.31234375 1.26992188 2.9921875 1.18359375 C1.51105469 1.09271484 1.51105469 1.09271484 0 1 C0 0.67 0 0.34 0 0 Z " fill="#5EDFEC" transform="translate(385,17)"/>
<path d="M0 0 C0 0.33 0 0.66 0 1 C-0.969375 1.28875 -1.93875 1.5775 -2.9375 1.875 C-6.10664203 2.64214682 -6.10664203 2.64214682 -7 5 C-8.32 5 -9.64 5 -11 5 C-11.33 4.34 -11.66 3.68 -12 3 C-13.32 3.99 -14.64 4.98 -16 6 C-14.125 2.125 -14.125 2.125 -13 1 C-8.62311835 0.22760912 -4.44088235 -0.1083142 0 0 Z " fill="#56D4ED" transform="translate(26,20)"/>
<path d="M0 0 C0.66 0.33 1.32 0.66 2 1 C1.67 1.33 1.34 1.66 1 2 C1.99 2.33 2.98 2.66 4 3 C4 4.32 4 5.64 4 7 C2.35 7 0.7 7 -1 7 C-1.33 5.68 -1.66 4.36 -2 3 C-2.99 3.99 -3.98 4.98 -5 6 C-4.75 4.125 -4.75 4.125 -4 2 C-2.0625 0.6875 -2.0625 0.6875 0 0 Z " fill="#57D3EC" transform="translate(546,20)"/>
<path d="M0 0 C-0.639375 0.268125 -1.27875 0.53625 -1.9375 0.8125 C-4.33131686 1.88667752 -4.33131686 1.88667752 -5 5 C-6.65 5 -8.3 5 -10 5 C-10 4.01 -10 3.02 -10 2 C-11.98 2 -13.96 2 -16 2 C-16 1.67 -16 1.34 -16 1 C-10.65097076 0.40801257 -5.39115154 -0.14187241 0 0 Z " fill="#59D7EE" transform="translate(481,19)"/>
<path d="M0 0 C1.98 0 3.96 0 6 0 C6.33 1.65 6.66 3.3 7 5 C4.69 5 2.38 5 0 5 C0 3.35 0 1.7 0 0 Z " fill="#72C6E3" transform="translate(583,39)"/>
<path d="M0 0 C2.39763185 2.39763185 2.34280586 3.33273498 2.625 6.625 C2.69976562 7.44226562 2.77453125 8.25953125 2.8515625 9.1015625 C2.90054688 9.72804688 2.94953125 10.35453125 3 11 C1.68 11 0.36 11 -1 11 C-1.14285714 3.57142857 -1.14285714 3.57142857 0 0 Z " fill="#5AE7EE" transform="translate(155,51)"/>
<path d="M0 0 C1.98 0 3.96 0 6 0 C6 1.65 6 3.3 6 5 C4.02 5 2.04 5 0 5 C0 3.35 0 1.7 0 0 Z " fill="#6DBADC" transform="translate(454,50)"/>
<path d="M0 0 C1.98 0 3.96 0 6 0 C6 1.65 6 3.3 6 5 C4.02 5 2.04 5 0 5 C0 3.35 0 1.7 0 0 Z " fill="#6FBBDC" transform="translate(315,50)"/>
<path d="M0 0 C1.98 0 3.96 0 6 0 C6 1.65 6 3.3 6 5 C4.02 5 2.04 5 0 5 C0 3.35 0 1.7 0 0 Z " fill="#75C7E4" transform="translate(208,39)"/>
<path d="M0 0 C1.98 0 3.96 0 6 0 C5.67 1.65 5.34 3.3 5 5 C3.35 5 1.7 5 0 5 C0 3.35 0 1.7 0 0 Z " fill="#6EBBDC" transform="translate(68,50)"/>
<path d="M0 0 C1.98 0 3.96 0 6 0 C6 1.65 6 3.3 6 5 C4.35 5 2.7 5 1 5 C0.67 3.35 0.34 1.7 0 0 Z " fill="#75BEDE" transform="translate(400,50)"/>
<path d="M0 0 C1.98 0 3.96 0 6 0 C5.67 1.65 5.34 3.3 5 5 C3.35 5 1.7 5 0 5 C0 3.35 0 1.7 0 0 Z " fill="#77C0DF" transform="translate(136,49)"/>
<path d="M0 0 C1.65 0 3.3 0 5 0 C5 1.65 5 3.3 5 5 C3.35 5 1.7 5 0 5 C0 3.35 0 1.7 0 0 Z " fill="#569AC9" transform="translate(354,71)"/>
<path d="M0 0 C0.99 0.33 1.98 0.66 3 1 C2.01 1.495 2.01 1.495 1 2 C1.061875 3.175625 1.061875 3.175625 1.125 4.375 C1 7 1 7 -1 9 C-1.39764263 10.98821313 -1.73775349 12.98944339 -2 15 C-2.33 15 -2.66 15 -3 15 C-3.36263859 9.1977825 -2.25684543 5.36000789 0 0 Z " fill="#55D3EB" transform="translate(264,21)"/>
<path d="M0 0 C1.32 0 2.64 0 4 0 C4 1.65 4 3.3 4 5 C2.35 5 0.7 5 -1 5 C-0.67 3.35 -0.34 1.7 0 0 Z " fill="#5192C4" transform="translate(290,76)"/>
<path d="M0 0 C1.98 0 3.96 0 6 0 C6 1.32 6 2.64 6 4 C4.02 4 2.04 4 0 4 C0 2.68 0 1.36 0 0 Z " fill="#7AC3E1" transform="translate(336,46)"/>
<path d="M0 0 C1.98 0 3.96 0 6 0 C6 1.32 6 2.64 6 4 C4.02 4 2.04 4 0 4 C0 2.68 0 1.36 0 0 Z " fill="#78C3E1" transform="translate(90,46)"/>
<path d="M0 0 C1.98 0 3.96 0 6 0 C6 1.32 6 2.64 6 4 C4.02 4 2.04 4 0 4 C0 2.68 0 1.36 0 0 Z " fill="#77C7E3" transform="translate(24,41)"/>
<path d="M0 0 C1.65 0 3.3 0 5 0 C5.33 1.32 5.66 2.64 6 4 C4.02 4 2.04 4 0 4 C0 2.68 0 1.36 0 0 Z " fill="#79C3E1" transform="translate(475,46)"/>
<path d="M0 0 C0.33 0 0.66 0 1 0 C1 1.65 1 3.3 1 5 C1.66 5 2.32 5 3 5 C2.67 7.31 2.34 9.62 2 12 C1.34 12 0.68 12 0 12 C0 8.04 0 4.08 0 0 Z " fill="#57D9E4" transform="translate(124,47)"/>
<path d="M0 0 C1.65 0 3.3 0 5 0 C5.33 1.32 5.66 2.64 6 4 C4.35 4 2.7 4 1 4 C0.67 2.68 0.34 1.36 0 0 Z " fill="#61D0EB" transform="translate(607,23)"/>
<path d="M0 0 C1.65 0 3.3 0 5 0 C5 1.32 5 2.64 5 4 C3.35 4 1.7 4 0 4 C0 2.68 0 1.36 0 0 Z " fill="#7ED3EA" transform="translate(422,30)"/>
<path d="M0 0 C1.65 0 3.3 0 5 0 C5 1.32 5 2.64 5 4 C3.35 4 1.7 4 0 4 C0 2.68 0 1.36 0 0 Z " fill="#63D1EB" transform="translate(237,23)"/>
<path d="M0 0 C1.32 0 2.64 0 4 0 C4 1.32 4 2.64 4 4 C2.35 4 0.7 4 -1 4 C-0.67 2.68 -0.34 1.36 0 0 Z " fill="#78D6ED" transform="translate(112,24)"/>
<path d="M0 0 C2.62962963 3.94444444 2.62962963 3.94444444 3 7 C2.0625 9.25 2.0625 9.25 1 11 C-0.17571451 7.32589215 -0.07366746 3.83070817 0 0 Z " fill="#50D1DE" transform="translate(544,65)"/>
<path d="M0 0 C1.32 0 2.64 0 4 0 C4.33 1.32 4.66 2.64 5 4 C3.35 4 1.7 4 0 4 C0 2.68 0 1.36 0 0 Z " fill="#79D6ED" transform="translate(490,24)"/>
</svg>
